<?xml version="1.0"?>
<svg xmlns="http://www.w3.org/2000/svg" xmlns:xlink="http://www.w3.org/1999/xlink" viewBox="0 0 512 512" width="512" height="512"><linearGradient id="a" gradientUnits="userSpaceOnUse" x1="256" x2="256" y1="30" y2="438.078"><stop offset="0" stop-color="#00efd1"/><stop offset="1" stop-color="#00acea"/></linearGradient><g fill="url(#a)"><path d="m192.191 128.794 53.809-54.205v193.663a10 10 0 0 0 20 0v-193.663l53.809 54.205a10 10 0 1 0 14.191-14.094l-70.9-71.424a10 10 0 0 0 -14.194 0l-70.906 71.424a10 10 0 1 0 14.193 14.09z"/><path d="m419.42 159.074a10.215 10.215 0 0 0 -9.1-6.074h-50.047a10 10 0 0 0 0 20h43.627l48.974 108h-60.485a68.381 68.381 0 0 0 -62.048 39.222 48.227 48.227 0 0 1 -43.894 27.778h-60.894a47.487 47.487 0 0 1 -26-7.4c-.031-.02-.061.073-.091.054a47.356 47.356 0 0 1 -17.8-20.184 68.363 68.363 0 0 0 -62.051-39.47h-59.336l57.8-108h33.654a10 10 0 0 0 0-20h-39.629a10.22 10.22 0 0 0 -8.8 5.484l-68.2 126.806a10.35 10.35 0 0 0 -1.1 4.859v129.82c0 28.512 23 52.031 51.514 52.031h340.972c28.514 0 51.514-23.519 51.514-52.031v-129.82a10.436 10.436 0 0 0 -.807-4.269zm38.58 260.895c0 17.485-14.029 32.031-31.514 32.031h-340.972c-17.485 0-31.514-14.546-31.514-32.031v-118.969h65.611a48.362 48.362 0 0 1 43.9 27.937 67.933 67.933 0 0 0 62.042 39.063h60.894a68.352 68.352 0 0 0 62.039-39.451 47.685 47.685 0 0 1 17.814-20.312c.029-.019.059.182.089.164a47.479 47.479 0 0 1 26-7.4h65.611z"/></g></svg>
